<?xml version="1.0" standalone="no"?>
<!DOCTYPE svg PUBLIC "-//W3C//DTD SVG 20010904//EN"
 "http://www.w3.org/TR/2001/REC-SVG-20010904/DTD/svg10.dtd">
<svg version="1.0" xmlns="http://www.w3.org/2000/svg"
 width="224.000000pt" height="225.000000pt" viewBox="0 0 224.000000 225.000000"
 preserveAspectRatio="xMidYMid meet">

<g transform="translate(0.000000,225.000000) scale(0.100000,-0.100000)"
fill="#000000" stroke="none">
<path d="M1050 2234 c-93 -29 -150 -109 -150 -212 0 -73 15 -115 59 -158 46
-47 94 -66 162 -65 260 1 311 362 61 437 -55 17 -74 17 -132 -2z"/>
<path d="M710 1143 l0 -605 28 7 c15 3 41 13 57 20 17 7 53 21 80 31 28 10 56
24 63 31 16 15 26 17 17 3 -5 -8 27 2 90 30 11 4 28 11 37 14 16 5 17 40 18
468 l0 463 -72 24 c-40 14 -79 29 -85 34 -7 5 -20 7 -28 3 -9 -3 -13 -2 -10 4
3 5 -7 13 -22 16 -15 4 -47 16 -71 26 -24 11 -50 17 -58 14 -8 -3 -13 -2 -10
3 3 5 -3 11 -14 14 -20 5 -20 -1 -20 -600z m145 -513 c-27 -12 -43 -12 -25 0
8 5 22 9 30 9 10 0 8 -3 -5 -9z"/>
<path d="M1477 1733 c-9 -2 -14 -9 -11 -15 4 -6 3 -8 -3 -5 -15 9 -134 -34
-126 -46 3 -6 1 -7 -6 -3 -11 7 -118 -29 -131 -43 -3 -3 -11 -6 -17 -7 -46 -4
-43 26 -43 -469 1 -431 2 -466 18 -472 9 -3 32 -12 51 -20 19 -9 44 -16 56
-17 13 0 21 -5 17 -10 -3 -5 2 -7 11 -3 10 3 17 3 17 -1 0 -4 33 -19 73 -32
39 -13 77 -28 83 -32 6 -5 20 -5 29 -1 13 4 16 3 11 -5 -4 -7 -1 -12 8 -12 14
0 16 61 16 579 0 394 -3 582 -10 586 -8 5 -7 11 1 21 9 11 8 14 -7 13 -11 -1
-27 -3 -37 -6z m-47 -1103 c18 -12 2 -12 -25 0 -13 6 -15 9 -5 9 8 0 22 -4 30
-9z"/>
<path d="M675 336 c-6 -6 -12 -24 -14 -41 -4 -35 -9 -45 -22 -45 -5 0 -9 14
-9 31 0 16 -4 28 -9 24 -6 -3 -6 -18 0 -38 6 -21 6 -33 -1 -35 -5 -2 -10 -8
-10 -14 0 -6 8 -4 18 5 23 21 29 21 35 0 3 -10 5 6 6 36 1 45 3 52 15 41 8 -6
16 -30 18 -53 l3 -42 5 52 c4 38 1 57 -10 71 -11 13 -19 16 -25 8z"/>
<path d="M810 343 c0 -5 6 -15 12 -21 7 -7 15 -36 19 -65 l6 -52 2 48 c1 35
-5 56 -19 74 -11 14 -20 21 -20 16z"/>
<path d="M1641 330 c9 -21 9 -23 -2 -12 -16 14 -33 16 -24 2 3 -5 1 -10 -4
-10 -6 0 -11 -5 -11 -12 0 -9 3 -9 11 -1 12 12 39 7 39 -8 0 -5 -9 -9 -19 -9
-14 0 -19 -7 -19 -22 2 -30 16 -48 37 -47 10 0 8 3 -7 10 -13 5 -20 13 -17 19
9 14 32 13 38 -2 3 -8 6 -7 6 4 1 11 -9 18 -26 21 l-28 4 28 2 c33 1 36 28 6
62 l-20 24 12 -25z"/>
<path d="M410 325 c0 -9 -10 -15 -22 -16 -14 0 -17 -2 -8 -6 42 -14 44 -16 16
-22 -35 -7 -41 -20 -21 -46 15 -19 15 -19 9 8 -5 23 -3 27 15 27 17 0 21 -7
22 -32 1 -25 3 -21 9 17 4 28 3 52 -2 53 -14 6 -9 22 6 22 10 0 17 -16 21 -47
10 -76 13 -81 14 -30 0 27 -4 57 -9 68 -13 22 -50 26 -50 4z"/>
<path d="M877 333 c-7 -12 -2 -111 6 -119 4 -4 7 14 7 39 0 45 11 60 26 36 3
-6 1 -15 -5 -19 -9 -5 -8 -10 4 -20 13 -11 15 -9 15 13 0 14 5 29 10 32 11 7
11 5 14 -42 3 -51 16 -51 16 -1 0 28 5 48 13 51 6 3 2 6 -9 6 -12 1 -27 8 -34
16 -13 16 -56 21 -63 8z m58 -12 c3 -5 2 -12 -3 -15 -12 -7 -52 4 -52 15 0 12
47 12 55 0z"/>
<path d="M1032 323 c-5 -10 -7 -23 -5 -29 2 -6 -5 -14 -17 -17 -26 -7 -26 -37
0 -44 11 -3 21 -10 21 -17 1 -6 4 2 8 18 3 16 12 31 20 34 10 3 12 -1 8 -17
-3 -11 -1 -19 4 -15 15 9 10 34 -8 42 -26 10 -28 52 -3 52 25 0 40 -28 42 -82
l1 -43 4 40 c3 22 10 46 16 54 8 10 8 13 1 8 -6 -4 -19 2 -29 13 -22 25 -51
26 -63 3z m-4 -64 c-2 -6 -8 -10 -13 -10 -5 0 -11 4 -13 10 -2 6 4 11 13 11 9
0 15 -5 13 -11z"/>
<path d="M165 299 c-11 -17 5 -25 16 -9 8 11 9 6 5 -18 -5 -30 -4 -32 18 -26
20 5 25 1 29 -18 2 -12 5 -2 6 25 0 26 6 47 11 47 6 0 11 -21 12 -47 1 -47 1
-47 5 -8 2 22 11 45 19 51 12 9 6 12 -30 10 -35 -1 -42 -4 -34 -14 8 -9 8 -16
0 -24 -8 -8 -14 -4 -21 15 -11 28 -25 34 -36 16z"/>
<path d="M326 287 c5 -16 2 -18 -16 -12 -19 6 -20 5 -11 -12 5 -11 18 -26 28
-34 17 -13 17 -13 3 5 -11 15 -12 20 -2 23 6 3 12 13 12 23 0 10 6 20 13 23 6
3 2 4 -10 4 -18 -1 -22 -6 -17 -20z"/>
<path d="M504 293 c4 -9 1 -20 -6 -24 -16 -10 5 -33 38 -43 19 -6 21 -3 20 26
-2 18 1 38 5 43 5 7 1 11 -9 12 -14 1 -17 -5 -14 -33 3 -26 0 -34 -11 -34 -12
0 -15 8 -10 35 4 24 2 35 -7 35 -7 0 -10 -7 -6 -17z"/>
<path d="M760 296 c0 -9 -7 -16 -15 -16 -18 0 -18 -1 -5 -35 8 -22 15 -26 34
-21 15 4 26 1 29 -7 2 -6 6 9 8 35 2 28 0 49 -6 52 -7 2 -9 -9 -7 -29 3 -27 0
-34 -18 -40 -26 -8 -40 2 -20 15 12 8 11 10 -5 11 -19 0 -18 1 3 11 24 12 28
23 12 33 -5 3 -10 -1 -10 -9z"/>
<path d="M1183 303 c9 -3 17 -14 17 -26 0 -18 -2 -19 -10 -7 -7 11 -10 12 -10
2 0 -8 9 -25 20 -39 11 -14 20 -21 20 -15 0 6 -5 14 -10 17 -13 8 -3 25 16 25
8 0 14 -9 14 -19 0 -11 5 -23 10 -26 6 -4 10 12 10 40 0 42 2 46 22 43 12 -2
24 -9 26 -17 3 -10 0 -12 -12 -8 -21 8 -20 -1 4 -38 11 -16 20 -25 20 -18 0 6
-5 15 -10 18 -6 4 -8 11 -5 16 10 15 42 10 49 -7 4 -11 14 -15 31 -12 18 4 25
1 27 -11 0 -9 4 4 7 29 3 25 11 45 16 45 6 0 13 -20 16 -45 l7 -45 -2 50 c-1
47 -3 50 -27 51 -23 1 -26 -3 -25 -30 1 -23 -4 -31 -19 -34 -16 -3 -18 -1 -7
9 17 18 15 46 -4 53 -11 4 -18 -1 -21 -14 -7 -26 -29 -26 -36 0 -4 17 -12 20
-45 18 -35 -3 -39 -5 -31 -20 7 -14 6 -18 -6 -18 -8 0 -15 6 -15 14 0 14 -22
27 -43 25 -7 -1 -4 -3 6 -6z m193 -32 c-4 -6 -13 -11 -19 -10 -9 0 -9 2 0 5 7
3 9 13 6 22 -5 13 -3 14 7 5 7 -6 9 -16 6 -22z"/>
<path d="M1529 260 c3 -49 12 -60 18 -22 8 57 7 67 -7 70 -12 2 -14 -7 -11
-48z"/>
<path d="M1708 303 c7 -3 16 -2 19 1 4 3 -2 6 -13 5 -11 0 -14 -3 -6 -6z"/>
<path d="M1744 295 c-4 -8 -17 -15 -30 -15 -13 0 -24 -4 -24 -9 0 -23 14 -41
31 -41 10 0 19 -4 19 -10 0 -5 4 -10 9 -10 5 0 7 9 4 20 -3 12 -13 19 -25 17
-12 -1 -23 4 -25 11 -3 7 5 12 20 12 16 0 26 7 30 20 6 23 -1 27 -9 5z"/>
<path d="M1798 297 c18 -21 6 -43 -14 -26 -21 17 -17 7 11 -31 14 -19 25 -29
25 -24 0 6 -6 16 -12 22 -10 10 -10 15 1 21 16 11 11 43 -9 49 -13 4 -13 3 -2
-11z"/>
<path d="M1840 295 c5 -5 10 -28 13 -50 l4 -40 1 47 c2 40 5 47 25 51 12 3 5
4 -15 4 -25 -1 -34 -5 -28 -12z"/>
<path d="M1923 287 c9 -15 9 -21 -1 -24 -6 -3 -10 -9 -6 -14 3 -5 1 -9 -5 -9
-19 0 -21 19 -4 30 17 10 16 11 -2 8 -12 -2 -20 -11 -20 -23 0 -12 8 -21 20
-24 11 -2 23 -8 27 -15 4 -6 8 10 8 37 0 26 5 47 10 47 6 0 10 -21 10 -47 0
-58 7 -53 11 7 4 44 3 45 -28 46 -29 1 -30 -1 -20 -19z"/>
<path d="M2028 303 c19 -7 14 -23 -8 -23 -32 0 -25 -36 10 -54 28 -14 30 -13
30 5 0 13 -6 18 -21 16 -12 -1 -24 4 -26 11 -3 7 5 12 20 12 35 0 43 35 8 36
-14 1 -20 -1 -13 -3z"/>
<path d="M1485 260 c3 -5 10 -10 16 -10 5 0 9 5 9 10 0 6 -7 10 -16 10 -8 0
-12 -4 -9 -10z"/>
<path d="M150 91 c0 -42 -16 -64 -26 -37 -4 9 0 24 7 33 12 14 12 16 -1 11 -9
-3 -15 -17 -15 -34 0 -23 5 -29 23 -30 20 -1 22 3 22 47 0 27 -2 49 -5 49 -3
0 -5 -18 -5 -39z"/>
<path d="M180 120 c0 -5 5 -10 10 -10 6 0 10 5 10 10 0 6 -4 10 -10 10 -5 0
-10 -4 -10 -10z"/>
<path d="M953 115 c-11 -19 -4 -87 8 -80 4 3 6 12 2 20 -3 9 0 22 7 30 10 12
10 15 0 15 -10 0 -10 3 0 15 8 10 9 15 2 15 -6 0 -15 -7 -19 -15z"/>
<path d="M1190 80 c0 -29 3 -51 6 -48 7 8 8 88 0 95 -3 4 -6 -18 -6 -47z"/>
<path d="M1390 86 c0 -25 5 -48 10 -51 6 -4 10 13 10 44 0 28 -4 51 -10 51 -5
0 -10 -20 -10 -44z"/>
<path d="M1840 116 c0 -7 -9 -16 -21 -19 -30 -8 -23 -62 9 -63 20 -1 22 3 22
47 0 27 -2 49 -5 49 -3 0 -5 -6 -5 -14z m0 -45 c0 -23 -16 -36 -25 -21 -9 14
1 40 15 40 5 0 10 -9 10 -19z"/>
<path d="M2049 125 c-3 -5 -5 -23 -3 -40 1 -16 3 -35 3 -41 1 -6 11 -11 24
-10 31 1 38 55 8 63 -11 3 -21 12 -23 22 -2 9 -6 12 -9 6z m35 -44 c8 -13 -4
-42 -15 -35 -12 7 -12 44 0 44 6 0 12 -4 15 -9z"/>
<path d="M2220 116 c0 -7 -9 -16 -21 -19 -30 -8 -23 -62 9 -63 20 -1 22 3 22
47 0 27 -2 49 -5 49 -3 0 -5 -6 -5 -14z m-5 -49 c0 -26 -20 -25 -23 2 -3 16 1
22 10 19 7 -3 13 -12 13 -21z"/>
<path d="M10 75 c0 -27 3 -45 7 -41 7 7 5 77 -3 85 -2 2 -4 -17 -4 -44z"/>
<path d="M380 81 c0 -22 5 -43 10 -46 6 -4 10 12 10 39 0 25 -4 46 -10 46 -5
0 -10 -18 -10 -39z"/>
<path d="M543 108 c-11 -14 2 -78 15 -78 7 0 7 78 -1 86 -2 2 -9 -1 -14 -8z"/>
<path d="M622 104 c-8 -9 -9 -14 -2 -14 6 0 8 -5 5 -10 -7 -12 3 -50 13 -50 7
0 7 78 0 85 -1 1 -9 -3 -16 -11z"/>
<path d="M739 109 c-2 -28 3 -64 11 -72 4 -5 6 10 4 33 -3 41 -13 67 -15 39z"/>
<path d="M1018 113 c7 -2 12 -22 12 -44 0 -24 4 -38 10 -34 6 3 10 21 10 40 0
18 6 36 13 38 6 3 -4 5 -23 5 -19 0 -29 -2 -22 -5z"/>
<path d="M1660 80 c0 -22 5 -40 10 -40 6 0 10 7 10 15 0 24 28 17 33 -7 2 -13
4 0 4 27 1 28 -1 42 -4 33 -5 -22 -33 -24 -33 -3 0 8 -4 15 -10 15 -5 0 -10
-18 -10 -40z"/>
<path d="M45 70 c3 -44 15 -49 15 -7 0 21 -4 37 -9 37 -5 0 -8 -14 -6 -30z"/>
<path d="M78 65 c2 -19 8 -32 13 -29 5 3 7 15 5 27 -3 12 -5 25 -5 30 -1 4 -5
7 -9 7 -4 0 -6 -16 -4 -35z"/>
<path d="M180 71 c0 -17 5 -33 10 -36 6 -4 10 8 10 29 0 20 -4 36 -10 36 -5 0
-10 -13 -10 -29z"/>
<path d="M232 93 c10 -2 18 -17 21 -36 4 -31 4 -31 5 6 2 33 -1 37 -20 36 -16
-1 -18 -3 -6 -6z"/>
<path d="M281 61 c1 -36 1 -36 8 -6 3 17 11 30 16 30 5 0 13 -13 17 -30 6 -29
6 -29 5 5 -2 29 -6 35 -24 36 -20 1 -23 -3 -22 -35z"/>
<path d="M421 63 c1 -27 3 -31 6 -13 7 37 23 49 23 18 0 -15 5 -30 11 -33 7
-5 9 5 7 26 -2 26 -8 35 -25 37 -21 3 -23 -1 -22 -35z"/>
<path d="M484 89 c-4 -7 1 -16 10 -21 20 -11 21 -32 0 -24 -8 3 -12 2 -9 -4 9
-15 25 -12 32 6 3 9 0 20 -8 25 -12 8 -12 11 1 19 13 8 13 10 -2 10 -9 0 -20
-5 -24 -11z"/>
<path d="M593 65 c0 -22 2 -30 4 -17 2 12 2 30 0 40 -3 9 -5 -1 -4 -23z"/>
<path d="M668 65 c2 -19 9 -35 14 -35 6 0 7 7 4 16 -3 9 -6 24 -6 35 0 10 -4
19 -8 19 -4 0 -6 -16 -4 -35z"/>
<path d="M700 71 c0 -18 4 -30 9 -26 6 3 8 15 6 27 -7 34 -15 34 -15 -1z"/>
<path d="M784 86 c-10 -25 0 -51 21 -54 20 -4 20 -4 0 12 -20 15 -20 15 4 16
17 0 22 4 17 16 -3 9 -6 18 -6 20 0 11 -31 2 -36 -10z m26 -6 c0 -5 -4 -10
-10 -10 -5 0 -10 5 -10 10 0 6 5 10 10 10 6 0 10 -4 10 -10z"/>
<path d="M881 82 c-14 -26 7 -56 32 -46 12 4 17 15 15 33 -4 32 -33 40 -47 13z
m34 -17 c0 -10 -6 -20 -12 -22 -8 -3 -13 5 -13 22 0 17 5 25 13 23 6 -3 12
-13 12 -23z"/>
<path d="M1074 86 c-10 -25 0 -51 21 -54 20 -4 20 -4 0 12 -20 15 -20 15 4 16
17 0 22 4 17 16 -3 9 -6 18 -6 20 0 11 -31 2 -36 -10z m26 -6 c0 -5 -4 -10
-10 -10 -5 0 -10 5 -10 10 0 6 5 10 10 10 6 0 10 -4 10 -10z"/>
<path d="M1143 93 c-16 -6 -17 -35 -1 -51 20 -20 33 -14 14 7 -16 17 -16 20
-1 35 16 16 12 19 -12 9z"/>
<path d="M1219 77 c5 -14 7 -27 5 -30 -3 -3 0 -8 6 -12 8 -5 10 3 8 26 -2 18
-9 34 -16 37 -9 3 -10 -2 -3 -21z"/>
<path d="M1262 63 c1 -37 1 -37 5 -5 5 41 23 42 23 0 0 -24 3 -29 11 -21 18
18 2 63 -21 63 -17 0 -20 -6 -18 -37z"/>
<path d="M1327 94 c-12 -12 -8 -41 9 -54 22 -19 54 12 38 38 -12 19 -36 27
-47 16z m33 -29 c0 -14 -4 -25 -9 -25 -12 0 -19 21 -13 38 8 21 22 13 22 -13z"/>
<path d="M1431 82 c-14 -26 7 -56 32 -46 12 4 17 15 15 33 -4 32 -33 40 -47
13z m34 -15 c0 -26 -20 -25 -23 2 -3 16 1 22 10 19 7 -3 13 -12 13 -21z"/>
<path d="M1496 84 c-5 -14 9 -54 19 -54 3 0 2 14 -1 30 -4 19 -2 30 5 30 6 0
11 -3 12 -7 0 -5 2 -19 3 -31 2 -16 -4 -27 -18 -33 -19 -8 -19 -9 4 -6 22 2
25 8 28 42 3 37 1 41 -22 43 -14 1 -26 -5 -30 -14z"/>
<path d="M1566 78 c5 -13 8 -33 9 -45 0 -35 13 -27 24 15 14 47 13 65 -1 32
l-10 -25 -9 23 c-4 12 -11 22 -14 22 -4 0 -3 -10 1 -22z"/>
<path d="M1741 85 c0 -11 3 -27 9 -35 6 -9 5 -19 -3 -29 -10 -11 -9 -13 2 -10
8 3 20 22 28 44 14 42 9 63 -6 24 l-9 -24 -10 25 c-9 21 -11 22 -11 5z"/>
<path d="M1877 94 c-13 -13 -7 -52 9 -58 26 -10 29 -7 8 9 -18 14 -18 14 4 15
17 0 23 5 20 17 -3 19 -29 29 -41 17z m33 -14 c0 -5 -7 -10 -16 -10 -8 0 -12
5 -9 10 3 6 10 10 16 10 5 0 9 -4 9 -10z"/>
<path d="M1941 61 c1 -28 3 -30 6 -11 3 14 9 30 14 36 5 7 3 11 -6 11 -11 0
-15 -11 -14 -36z"/>
<path d="M1993 94 c10 -3 17 -15 17 -30 0 -13 5 -24 11 -24 6 0 9 12 7 28 -2
21 -9 27 -28 29 -14 1 -18 0 -7 -3z"/>
<path d="M2133 94 c12 -4 17 -13 15 -27 -2 -12 -7 -20 -13 -18 -5 1 -9 8 -7
15 3 8 0 8 -8 -1 -16 -15 -5 -32 21 -30 29 2 23 61 -6 64 -17 2 -17 1 -2 -3z"/>
<path d="M215 60 c-8 -12 2 -30 17 -30 7 0 7 4 -1 13 -6 8 -8 17 -4 20 3 4 4
7 0 7 -3 0 -9 -4 -12 -10z"/>
<path d="M1980 56 c0 -8 4 -17 8 -20 4 -2 8 4 8 15 0 10 -4 19 -8 19 -4 0 -8
-6 -8 -14z"/>
</g>
</svg>
