<?xml version="1.0" standalone="no"?>
<!DOCTYPE svg PUBLIC "-//W3C//DTD SVG 20010904//EN"
 "http://www.w3.org/TR/2001/REC-SVG-20010904/DTD/svg10.dtd">
<svg version="1.0" xmlns="http://www.w3.org/2000/svg"
 width="225.000000pt" height="225.000000pt" viewBox="0 0 225.000000 225.000000"
 preserveAspectRatio="xMidYMid meet">

<g transform="translate(0.000000,225.000000) scale(0.100000,-0.100000)"
fill="#000000" stroke="none">
<path d="M0 1125 l0 -1125 1125 0 1125 0 0 1125 0 1125 -1125 0 -1125 0 0
-1125z m1035 914 c80 -30 186 -108 214 -159 35 -62 35 -147 0 -217 -14 -29
-21 -49 -15 -46 22 14 -35 -55 -85 -103 -45 -41 -226 -164 -244 -164 -11 0 -4
28 10 40 18 15 21 54 3 45 -7 -3 3 6 22 21 69 55 152 145 170 187 14 29 20 65
20 114 0 62 -5 82 -32 136 -21 41 -45 72 -67 87 -39 25 -111 39 -111 21 0 -6
-8 -11 -17 -11 -52 0 -101 -25 -151 -77 -29 -29 -56 -52 -61 -49 -12 8 -21
-29 -21 -84 1 -73 92 -265 164 -342 17 -18 44 -55 61 -83 17 -27 58 -86 90
-130 33 -44 71 -96 85 -116 197 -281 270 -391 270 -403 0 -19 -78 -102 -87
-93 -4 4 2 14 13 22 10 8 14 15 8 15 -7 0 -27 -14 -44 -30 -18 -17 -36 -27
-40 -23 -4 4 -76 107 -160 228 -201 288 -288 405 -301 405 -44 0 -204 -161
-250 -251 -50 -99 -59 -212 -24 -302 4 -10 3 -17 -4 -17 -6 0 -11 10 -11 22 0
16 -3 19 -11 11 -13 -13 33 -110 88 -185 55 -76 170 -165 170 -133 0 8 -4 12
-9 9 -4 -3 -5 2 -2 10 5 12 13 11 52 -7 38 -18 66 -22 147 -22 93 0 105 2 167
33 39 19 92 57 130 94 34 34 67 61 73 59 5 -1 7 0 3 4 -7 8 -4 12 55 77 44 48
81 98 73 98 -3 0 19 46 49 103 29 56 60 127 69 157 18 64 24 175 12 209 -6 18
-5 22 5 15 7 -4 3 6 -9 23 -26 37 -97 74 -147 76 -29 2 -35 6 -35 24 0 33 14
36 98 18 61 -13 112 -16 247 -12 94 3 186 8 205 12 l35 7 -30 -26 c-22 -19
-25 -24 -10 -20 11 3 -12 -12 -52 -35 -113 -65 -160 -125 -268 -348 -52 -106
-110 -217 -129 -247 -20 -31 -32 -56 -28 -56 4 0 27 -27 51 -60 88 -121 222
-231 281 -229 8 0 0 6 -17 14 -44 19 -42 26 4 13 82 -22 189 12 239 77 29 38
41 42 68 22 18 -13 18 -14 0 -37 -59 -72 -78 -89 -131 -116 -53 -26 -67 -29
-158 -29 -85 0 -111 4 -178 29 -92 34 -126 69 -129 134 -1 23 -4 42 -8 42 -4
0 -13 20 -20 45 -7 24 -16 42 -21 39 -12 -7 -11 3 1 27 19 35 3 20 -40 -38
-59 -79 -240 -256 -293 -288 -24 -14 -64 -27 -88 -29 -24 -2 -76 -7 -114 -11
-83 -9 -199 7 -262 36 -24 10 -48 19 -54 19 -6 0 -8 7 -5 16 4 9 2 13 -5 8 -6
-3 -24 3 -40 15 -15 11 -33 21 -38 21 -5 0 -18 10 -28 23 -10 13 -32 30 -48
38 -32 15 -88 99 -106 159 -6 19 -13 74 -16 122 -7 106 17 194 75 283 49 75
76 99 237 220 72 54 132 101 133 106 2 5 -14 31 -36 57 -57 68 -90 138 -107
226 -20 105 -19 165 5 230 42 112 195 231 320 249 43 6 123 -5 175 -24z m205
-1458 c-11 -21 -22 -26 -33 -15 -3 4 4 15 16 24 27 22 32 19 17 -9z m-850
-213 c0 -12 -6 -9 -26 13 -19 22 -19 22 4 8 12 -8 22 -17 22 -21z"/>
<path d="M574 1148 l-19 -23 23 19 c21 18 27 26 19 26 -2 0 -12 -10 -23 -22z"/>
</g>
</svg>
