<?xml version="1.0" encoding="utf-8"?>
<!-- Generator: Adobe Illustrator 25.0.1, SVG Export Plug-In . SVG Version: 6.00 Build 0)  -->
<svg version="1.0" id="katman_1" xmlns="http://www.w3.org/2000/svg" xmlns:xlink="http://www.w3.org/1999/xlink" x="0px" y="0px"
	 viewBox="0 0 560 400" style="enable-background:new 0 0 560 400;" xml:space="preserve">
<style type="text/css">
	.st0{fill:#FE414D;}
	.st1{fill-rule:evenodd;clip-rule:evenodd;fill:#FE414D;}
	.st2{fill-rule:evenodd;clip-rule:evenodd;}
</style>
<g transform="matrix(1.35882 0 0 1.35882 100 102.165)">
	<path d="M214.8,41.4c-3.2,2.5-7.3,4-11.7,4c-10.2,0-18.6-8.1-18.6-18s8.4-18,18.7-18c4.4,0,8.5,1.5,11.7,4l4-4
		c-4.2-3.5-9.7-5.6-15.6-5.6c-13.3,0-24.1,10.6-24.1,23.6s10.8,23.6,24.1,23.6c5.9,0,11.4-2.2,15.6-5.6L214.8,41.4z"/>
	<path class="st0" d="M143.6,83.3c1.9,0,3.5-1.6,3.5-3.5c0-1.9-1.6-3.5-3.5-3.5s-3.5,1.6-3.5,3.5C140,81.7,141.6,83.3,143.6,83.3z"
		/>
	<path class="st1" d="M140.8,90h5.6v47h-5.6V90z"/>
	<g>
		<path d="M27.2,27.2c0-12.9-10.2-23.5-22.8-23.5c-6.7,0-13,3-17.2,8.1V3.8h-5.6v64h5.6V42.6c4.3,5.2,10.5,8.2,17.2,8.2
			C16.9,50.8,27.2,40.2,27.2,27.2z M4.4,45.2c-9.3,0-16.9-7.6-17.2-17.3v-0.7c0-9.9,7.6-17.9,17.2-17.9s17.2,8,17.2,17.9
			S13.8,45.2,4.4,45.2z"/>
		<path class="st0" d="M47.8,137c6.7,0,12.9-3,17.2-8.2v8.2h5.6V90H65v8.1C60.6,93,54.5,90,47.8,90C35.2,90,25,100.5,25,113.5
			C25.1,126.4,35.2,137,47.8,137z M30.6,113.3c0-9.9,7.7-17.9,17.2-17.9s17.2,8,17.2,17.9v0.7c-0.3,9.7-8,17.3-17.2,17.3
			C38.3,131.4,30.6,123.4,30.6,113.3L30.6,113.3z"/>
		<path class="st0" d="M130.6,113.3c0-12.9-10.2-23.5-22.8-23.5c-6.7,0-13,3-17.2,8.1v-8.1H85V154h5.6v-25.2
			c4.3,5.2,10.5,8.2,17.2,8.2C120.4,137,130.6,126.4,130.6,113.3z M107.9,131.4c-9.3,0-16.9-7.6-17.2-17.3v-0.7
			c0-9.9,7.7-17.9,17.2-17.9s17.2,8,17.2,17.9S117.4,131.4,107.9,131.4L107.9,131.4z"/>
		<path d="M68.6,3.8v27.8c0,7.6-6,13.8-13.8,13.8c-7.6-0.1-13.7-6.2-13.7-13.8V3.8h-5.5v27.8c0,10.6,8.5,19.2,19.1,19.2
			c10.7,0,19.4-8.7,19.4-19.2V3.8H68.6z"/>
		<path d="M107.9,3.8c-6.7,0-12.9,3-17.2,8.2v-22h-5.6v60.9h5.6v-8.1c4.3,5.1,10.5,8.1,17.2,8.1c12.5,0,22.8-10.5,22.8-23.5
			C130.6,14.4,120.4,3.8,107.9,3.8L107.9,3.8z M125.1,27.4c0,9.9-7.7,17.9-17.2,17.9s-17.2-8-17.2-17.9v-0.7
			c0.3-9.7,8-17.3,17.2-17.3C117.4,9.4,125.1,17.4,125.1,27.4z"/>
		<path d="M165.3-2.9c1.9,0,3.5-1.6,3.5-3.5s-1.6-3.5-3.5-3.5c-1.9,0-3.5,1.6-3.5,3.5S163.4-2.9,165.3-2.9z"/>
	</g>
	<path class="st2" d="M162.6,3.8h5.6v47h-5.6V3.8z"/>
	<path d="M234.7-2.9c1.9,0,3.5-1.6,3.5-3.5s-1.6-3.5-3.5-3.5s-3.5,1.6-3.5,3.5C231-4.5,232.6-2.9,234.7-2.9z"/>
	<path class="st2" d="M231.8,3.8h5.6v47h-5.6V3.8z"/>
	<path class="st0" d="M234.2,90c-5.2,0-10.2,2.2-13.8,5.9V90h-5.4v47h5.4v-27.9c0.2-7.6,6.4-13.8,13.8-13.8
		c7.6,0,13.8,6.2,13.8,13.8V137h5.5v-27.9C253.3,98.5,244.7,90,234.2,90L234.2,90z"/>
	<path class="st0" d="M281.9,131.7l-0.6,0.1c-0.6,0.1-1.4,0.3-2.7,0.3c-2.3,0-3.2-1.4-3.2-4.7V95.3h6.5V90h-6.5V74.2h-5.7V90h-6.6
		v5.4h6.6v32.2c0,3.5,0.7,5.8,1.9,7.3c1.3,1.5,3.2,2.2,5.6,2.2c1.8,0,3.4-0.2,4.4-0.7l0.3-0.1L281.9,131.7z"/>
	<path class="st0" d="M195.5,123.5c-3.1,5-8.5,8.1-14.5,8.1c-9.1,0-16.7-7.3-17.4-16.7H201c1.5,0,2.7-1.1,2.7-2.5v-0.5
		C202.7,99.4,193,90,181,90c-12.6,0-22.9,10.6-22.9,23.6c0,12.9,10.2,23.5,22.9,23.5c7.7,0,14.8-4,19-10.6L195.5,123.5z M181,95.5
		c8.1,0,15,5.9,16.7,14h-33.7C165.9,101.2,172.8,95.5,181,95.5L181,95.5z"/>
	<path class="st0" d="M12.4,114.4c0,0-1.5-1.1-3-1.8c-1.6-0.7-3.8-1.4-8.4-2.5c-0.7-0.1-1.3-0.2-1.8-0.5c-3.1-0.8-5.5-1.8-7.3-3.1
		c-1.7-1.5-2.3-2.7-2.3-4.3c0.1-1.7,1.1-3.4,3-4.8c2-1.6,5.1-2.3,8.5-2.2c3.9,0.1,6.8,2.2,10,4.4l0.3,0.2l4-3.8
		c-0.5-0.5-0.6-0.6-1.9-1.5c-3.2-2.2-7.1-4.4-12.3-4.7c-4.6-0.2-8.5,0.7-11.7,2.7c-3.4,2.3-5.6,5.6-5.6,9.1c0,2.6,0.5,5.1,3.2,7.6
		c3.2,3.1,8.1,4.7,12.5,5.5c3.9,0.8,7.4,2.2,9.2,3.6c2.2,1.9,2.8,3.4,2.8,5.5c-0.1,1.9-1.4,3.8-3.5,5.1c-2.2,1.6-5.4,2.5-8.5,2.4
		c-4.3-0.2-8.8-2.1-13.2-5.6l-0.3-0.2l-4,3.6l0.3,0.3c5.2,4.4,10.8,6.9,16.9,7.3c4.4,0.2,8.3-0.9,12-3.3c3.6-2.5,5.7-5.8,5.9-9.5
		C17.5,120.5,15.5,116.6,12.4,114.4L12.4,114.4z"/>
	<path d="M278.5,28.2c0,0-1.5-1.1-3-1.8c-1.6-0.7-3.8-1.4-8.4-2.5c-0.7-0.1-1.3-0.2-1.8-0.5c-3.1-0.8-5.5-1.8-7.3-3.1
		c-1.7-1.5-2.4-2.7-2.3-4.3c0.1-1.7,1.1-3.4,3-4.8c2.1-1.6,5.1-2.3,8.5-2.2c3.9,0.1,6.8,2.2,10,4.4l0.3,0.2l4-3.8
		c-0.5-0.5-0.6-0.6-1.9-1.5c-3.2-2.2-7.1-4.4-12.3-4.7c-4.6-0.2-8.5,0.7-11.7,2.7c-3.4,2.3-5.6,5.6-5.6,9.1c0,2.6,0.5,5.1,3.2,7.6
		c3.2,3.1,8.1,4.7,12.5,5.5c3.9,0.8,7.4,2.2,9.2,3.6c2.2,1.9,2.8,3.4,2.8,5.5c-0.1,1.9-1.4,3.8-3.5,5.1c-2.2,1.6-5.4,2.5-8.5,2.4
		c-4.3-0.2-8.8-2-13.2-5.6l-0.3-0.2l-4,3.6l0.3,0.3c5.2,4.4,10.8,6.9,16.9,7.3c4.4,0.2,8.3-0.9,12-3.3c3.6-2.5,5.7-5.8,5.9-9.5
		C283.6,34.3,281.8,30.4,278.5,28.2L278.5,28.2z"/>
	<path class="st2" d="M140.8-10h5.6v60.8h-5.6V-10z"/>
</g>
</svg>
